<svg width="512" height="512" viewBox="0 0 512 512" xmlns="http://www.w3.org/2000/svg" role="img" aria-label="Elchi app icon">
  <circle cx="256" cy="256" r="256" fill="#FDF6EC"/>

  <g transform="translate(127.2,108.8) scale(1.15)">
    <rect x="97" y="20" width="30" height="216" rx="10" fill="#101A33"/>

    <g transform="translate(56,35) rotate(-4)">
      <path d="M0,6 L124,6 L156,31 L124,56 L0,56 Z" fill="#0E1526"/>
      <path d="M0,0 L124,0 L156,25 L124,50 L0,50 Z" fill="#16213E"/>
      <circle cx="44" cy="25" r="8" fill="#0A0F1C"/>
    </g>

    <g transform="translate(168,103) rotate(3) scale(-1,1)">
      <path d="M0,6 L124,6 L156,31 L124,56 L0,56 Z" fill="#C7402E"/>
      <path d="M0,0 L124,0 L156,25 L124,50 L0,50 Z" fill="#EF5A45"/>
      <circle cx="44" cy="25" r="8" fill="#0A0F1C"/>
    </g>

    <g transform="translate(56,171) rotate(-3)">
      <path d="M0,6 L124,6 L156,31 L124,56 L0,56 Z" fill="#1F4FAE"/>
      <path d="M0,0 L124,0 L156,25 L124,50 L0,50 Z" fill="#2F6FE4"/>
      <circle cx="44" cy="25" r="8" fill="#0A0F1C"/>
    </g>
  </g>
</svg>
